<svg width="129" height="126" viewBox="0 0 129 126" fill="none" xmlns="http://www.w3.org/2000/svg">
<rect x="0.116211" width="124.091" height="124.091" rx="62" fill="url(#paint0_linear_1858_982)"/>
<mask id="mask0_1858_982" style="mask-type:luminance" maskUnits="userSpaceOnUse" x="2" y="0" width="127" height="127">
<circle cx="65.7635" cy="63.2117" r="62.7889" fill="white"/>
</mask>
<g mask="url(#mask0_1858_982)">
<path d="M43.77 112.212C43.77 112.212 -26.7899 136.873 -32.8035 139.956C-38.8172 143.039 -81.1542 154.51 -84.4618 154.895C-87.7694 155.281 -111.783 144.965 -116.894 143.039C-116.894 143.039 -120.502 148.074 -107.272 153.07C-107.272 153.07 -133.732 153.853 -134.634 153.07C-135.536 152.287 -142.252 162.177 -112.284 160.25L-131.026 164.617C-131.026 164.617 -137.942 174.122 -107.272 168.085C-83.8183 163.469 -118.313 176.276 -110.411 181.766L-96.2288 173.933L39.6042 154.615L43.77 112.212Z" fill="#FF9763"/>
<path d="M23.8831 118.028C23.8831 118.028 11.1255 144.905 10.4434 163.578C10.4434 163.578 51.8513 157.615 71.6336 146.411C91.4159 135.207 115.973 87.7776 23.8831 118.028Z" fill="#FFC562"/>
<path d="M57.9973 65.3044L53.0547 104.702L82.7145 119.507L80.1274 61.292L57.9973 65.3044V65.3044Z" fill="#FF9763"/>
<mask id="mask1_1858_982" style="mask-type:luminance" maskUnits="userSpaceOnUse" x="53" y="61" width="30" height="59">
<path fill-rule="evenodd" clip-rule="evenodd" d="M57.9973 65.3044L53.0547 104.702L82.7145 119.507L80.1274 61.292L57.9973 65.3044V65.3044Z" fill="white"/>
</mask>
<g mask="url(#mask1_1858_982)">
<path d="M73.5273 80.1173C76.9864 89.5139 73.5807 97.4786 80.3891 98.8973C96.2174 102.195 99.5396 77.8896 99.5396 77.8896L77.3509 79.782" fill="#E84B23"/>
</g>
<path d="M74.2833 81.5241L90.0765 77.5816C95.1884 76.3055 99.5545 72.567 100.911 67.476C102.216 62.7358 100.926 57.6589 97.5176 54.116L74.8497 30.4219L55.3965 56.5057L64.1649 71.744" fill="#FF9763"/>
<path d="M82.3463 45.0424V45.0424C83.1681 44.3932 84.3605 44.5331 85.0096 45.3549L86.9947 47.8678C87.6439 48.6895 87.504 49.8819 86.6823 50.5311V50.5311C85.8605 51.1802 84.6681 51.0403 84.019 50.2186L82.0338 47.7057C81.3846 46.8839 81.5246 45.6915 82.3463 45.0424L82.3463 45.0424Z" fill="#190000"/>
<path d="M79.7369 39.0201C75.085 42.3711 75.5564 45.0245 78.601 43.1194C81.6456 41.2142 82.7762 36.8307 79.7369 39.0201Z" fill="#190000"/>
<path d="M87.9512 44.7612C96.1997 43.9448 98.7307 51.3111 93.8496 52.942Z" fill="#FF9763"/>
<ellipse cx="77.4957" cy="53.3309" rx="5.55393" ry="4.46875" transform="rotate(-22.8714 77.4957 53.3309)" fill="#E84B23"/>
<path d="M67.755 63.1528C66.5775 62.5114 65.1189 62.7169 64.1645 63.6586C63.207 64.6418 63.0899 66.1691 63.8864 67.2867C64.3237 67.8941 64.9528 68.4122 65.7143 68.5304C66.0008 68.5985 66.3023 68.5591 66.5616 68.4195C66.8134 68.2724 66.9965 68.0312 67.0705 67.7491C67.1444 67.4669 67.1033 67.167 66.956 66.9152C66.8144 66.6648 66.5773 66.4825 66.2989 66.4099C66.1568 66.3878 66.018 66.3483 65.8855 66.2921L66.1482 66.403C66.018 66.344 65.8947 66.2707 65.7806 66.1845L66.0031 66.3564C65.8673 66.2493 65.7451 66.1259 65.6392 65.9891L65.8111 66.2117C65.7072 66.0724 65.6199 65.9214 65.5511 65.7619L65.6619 66.0245C65.5963 65.8647 65.5508 65.6974 65.5264 65.5265L65.5656 65.8187C65.5486 65.6768 65.5476 65.5335 65.5628 65.3914L65.5236 65.6837C65.5424 65.5418 65.5789 65.4028 65.6321 65.27L65.5213 65.5326C65.576 65.4061 65.6453 65.2865 65.7278 65.1761L65.5559 65.3986C65.6493 65.2796 65.7562 65.1717 65.8744 65.0773L65.6519 65.2492C65.795 65.1394 65.9514 65.0481 66.1174 64.9774L65.8548 65.0882C66.0223 65.0201 66.1975 64.9728 66.3766 64.9476L66.0843 64.9869C66.2487 64.9668 66.4149 64.9668 66.5793 64.9869L66.2869 64.9476C66.4366 64.9692 66.5829 65.0095 66.7226 65.0675L66.4599 64.9566C66.5233 64.9849 66.5851 65.0167 66.645 65.0516C66.9842 65.2499 67.4034 65.2521 67.7447 65.0575C68.086 64.8629 68.2975 64.501 68.2996 64.1081C68.3017 63.7152 68.0941 63.3511 67.7549 63.1528L67.755 63.1528Z" fill="#190000"/>
<path d="M70.0725 62.2155C77.3602 57.2712 62.5255 46.4277 76.2259 39.8652C89.9264 33.3027 97.1307 -3.58012 80.78 13.4492C64.4294 30.4785 63.397 -3.56275 58.4145 15.5362C53.432 34.6352 55.4033 43.4433 42.5912 50.2304C29.7791 57.0175 47.438 80.5552 60.159 80.2227C72.88 79.8903 70.0725 62.2155 70.0725 62.2155Z" fill="#3A3530"/>
<path d="M74.2742 58.3184C50.3014 57.3932 53.2331 77.3357 74.1697 73.8952Z" fill="#FF9763"/>
<path d="M-24.4404 175.891C0.421365 199.433 43.694 224.428 55.3972 222.677C55.3972 222.677 93.4715 129.354 82.0054 103.497L56.6459 85.373C56.6459 85.373 11.1765 118.363 -24.4404 175.891Z" fill="#FFC562"/>
<mask id="mask2_1858_982" style="mask-type:luminance" maskUnits="userSpaceOnUse" x="-25" y="85" width="110" height="138">
<path fill-rule="evenodd" clip-rule="evenodd" d="M-24.4404 175.892C0.421365 199.434 43.694 224.429 55.3972 222.678C55.3972 222.678 93.4715 129.355 82.0054 103.498L56.6459 85.374C56.6459 85.374 11.1765 118.364 -24.4404 175.892Z" fill="white"/>
</mask>
<g mask="url(#mask2_1858_982)">
<path d="M49.4629 87.0769C51.8973 89.0533 84.159 115.674 84.159 115.674L90.1803 96.9757L59.4992 84.3271" fill="#F0F3FC"/>
</g>
<path d="M17.7553 99.4658C17.7553 99.4658 -52.8045 124.127 -58.8182 127.21C-64.8318 130.293 -107.169 141.764 -110.476 142.149C-113.784 142.535 -137.797 132.219 -142.909 130.293C-142.909 130.293 -146.517 135.327 -133.287 140.324C-133.287 140.324 -159.747 141.107 -160.649 140.324C-161.551 139.541 -168.266 149.431 -138.298 147.504L-157.041 151.871C-157.041 151.871 -163.956 161.376 -133.287 155.339C-109.833 150.723 -144.328 163.53 -136.426 169.019L-122.243 161.187L13.5896 141.869L17.7553 99.4658Z" fill="#FF9763"/>
<mask id="mask3_1858_982" style="mask-type:luminance" maskUnits="userSpaceOnUse" x="-162" y="99" width="180" height="71">
<path fill-rule="evenodd" clip-rule="evenodd" d="M17.7563 99.4658C17.7563 99.4658 -52.8035 124.127 -58.8172 127.21C-64.8309 130.293 -107.168 141.764 -110.475 142.149C-113.783 142.535 -137.796 132.219 -142.908 130.293C-142.908 130.293 -146.516 135.327 -133.286 140.324C-133.286 140.324 -159.746 141.107 -160.648 140.324C-161.55 139.541 -168.265 149.431 -138.297 147.504L-157.04 151.871C-157.04 151.871 -163.955 161.376 -133.286 155.339C-109.832 150.723 -144.327 163.53 -136.425 169.019L-122.242 161.187L13.5905 141.869L17.7563 99.4658Z" fill="white"/>
</mask>
<g mask="url(#mask3_1858_982)">
<path d="M5.53315 103.909C-2.7114 90.6601 -23.476 148.761 -28.7005 151.357C-33.925 153.953 1.27114 154.503 1.27114 154.503L12.0923 100.961" fill="#E84B23"/>
</g>
<path d="M-2.13345 105.283C-2.13345 105.283 -14.8911 132.16 -15.5732 150.833C-15.5732 150.833 25.8347 144.869 45.617 133.666C65.3993 122.462 89.9568 75.0325 -2.13345 105.283Z" fill="#FFC562"/>
<mask id="mask4_1858_982" style="mask-type:luminance" maskUnits="userSpaceOnUse" x="-16" y="95" width="81" height="56">
<path fill-rule="evenodd" clip-rule="evenodd" d="M-2.13345 105.283C-2.13345 105.283 -14.8911 132.16 -15.5732 150.833C-15.5732 150.833 25.8347 144.869 45.617 133.666C65.3993 122.462 89.9568 75.0325 -2.13345 105.283Z" fill="white"/>
</mask>
<g mask="url(#mask4_1858_982)">
<path d="M15.1506 90.6953C1.95213 112.143 1.88694 161.087 1.88694 161.087L-33.1602 150.159L-15.5747 85.374" fill="#F0F3FC"/>
</g>
<path d="M64.9177 30.9546C66.6371 31.1491 68.3608 30.4159 69.7452 29.4503C70.4729 28.9429 71.1522 28.369 71.833 27.8016C71.9797 27.6793 72.1269 27.5576 72.2745 27.4364C72.3483 27.376 72.4225 27.316 72.4969 27.2563C72.5294 27.2302 72.8435 26.9851 72.6493 27.1339C72.9771 26.8828 73.3142 26.6447 73.6635 26.4243C74.1879 26.1178 74.3645 25.4443 74.058 24.9199C73.7515 24.3956 73.0779 24.219 72.5536 24.5255C71.8363 24.9936 71.1499 25.5073 70.4985 26.0634C70.1918 26.3172 69.8879 26.5743 69.5801 26.8266C69.4201 26.9578 69.2588 27.0873 69.0963 27.2153C69.2466 27.0969 69.0697 27.2353 69.016 27.2755C68.9396 27.3327 68.8628 27.3893 68.7854 27.4451C68.4854 27.6621 68.1742 27.8632 67.853 28.0475C67.6783 28.147 67.5002 28.2405 67.3189 28.3278C67.2904 28.3414 67.0265 28.4632 67.1554 28.4056C67.281 28.3495 66.9749 28.4756 66.9447 28.4866C66.773 28.5494 66.5987 28.6053 66.422 28.6523C66.2534 28.7233 66.073 28.762 65.8901 28.7664C66.0333 28.7492 66.0412 28.748 65.9137 28.7627L65.8237 28.7712C65.7337 28.7788 65.6435 28.7838 65.5531 28.7862C65.3408 28.7905 65.1285 28.7802 64.9177 28.7554C64.3441 28.6905 63.7936 29.3074 63.8182 29.8549C63.8473 30.506 64.3032 30.8849 64.9177 30.9544L64.9177 30.9546Z" fill="#190000"/>
<path d="M47.2296 58.3183C47.1151 59.4583 47.2296 60.6097 47.5664 61.7049C47.6474 61.9791 47.8275 62.2133 48.0717 62.362C48.4579 62.5878 48.9423 62.5572 49.297 62.2845C49.6517 62.0119 49.8058 61.5515 49.6869 61.1203C49.5625 60.7136 49.4709 60.2976 49.4128 59.8763L49.4521 60.1686C49.3716 59.5549 49.3638 58.9338 49.4286 58.3183C49.4286 58.0266 49.3128 57.747 49.1065 57.5408C48.9003 57.3346 48.6207 57.2188 48.3291 57.2188C48.0375 57.2188 47.7578 57.3346 47.5516 57.5408C47.3582 57.7553 47.2445 58.0298 47.2296 58.3183Z" fill="#190000"/>
<path d="M66.9101 62.7757C65.9535 63.0122 65.183 63.7191 64.8652 64.6518C64.5551 65.6279 64.7889 66.6952 65.4786 67.4522C65.7931 67.7667 66.266 67.8607 66.6768 67.6906C67.0877 67.5204 67.3556 67.1195 67.3556 66.6748C67.3434 66.3857 67.2293 66.1103 67.0335 65.8973C67.0146 65.8758 66.9962 65.8538 66.9784 65.8313L67.1503 66.0538C67.0542 65.929 66.9743 65.7924 66.9126 65.6473L67.0235 65.91C66.9649 65.7635 66.9241 65.6105 66.9021 65.4542L66.9414 65.7465C66.9226 65.5899 66.9232 65.4317 66.9431 65.2752L66.9038 65.5675C66.9249 65.4277 66.9624 65.2909 67.0155 65.1599L66.9047 65.4226C66.9647 65.2846 67.0412 65.1545 67.1325 65.0349L66.9606 65.2575C67.0544 65.1396 67.1614 65.033 67.2796 64.9396L67.0571 65.1115C67.177 65.0206 67.3072 64.9441 67.4449 64.8834L67.1822 64.9943C67.2833 64.9525 67.3879 64.9196 67.4947 64.8961C68.0773 64.7309 68.4193 64.1285 68.2626 63.5435C68.0899 62.9668 67.4938 62.6284 66.9101 62.7756V62.7757Z" fill="#190000"/>
<path d="M47.9313 108.822C49.3242 110.93 50.5297 113.155 51.5341 115.473C51.5592 115.531 51.584 115.589 51.609 115.647C51.7299 115.927 51.5557 115.517 51.6273 115.689C51.6817 115.821 51.7364 115.952 51.79 116.083C51.915 116.39 52.0365 116.698 52.1544 117.008C52.3735 117.583 52.5803 118.163 52.7747 118.747C53.1736 119.944 53.5195 121.158 53.8126 122.387C53.9736 123.063 54.1181 123.742 54.246 124.424C54.31 124.765 54.3699 125.107 54.4255 125.45C54.4559 125.637 54.485 125.824 54.5128 126.011C54.5221 126.074 54.5312 126.136 54.5403 126.199C54.5472 126.246 54.6027 126.651 54.5659 126.375C54.5769 126.665 54.6912 126.94 54.888 127.153C55.0952 127.357 55.3742 127.473 55.6654 127.475C56.1957 127.451 56.8467 126.986 56.765 126.375C56.0766 121.166 54.4791 116.117 52.0453 111.46C51.3704 110.174 50.631 108.924 49.8301 107.713C49.5135 107.233 48.8438 106.984 48.3259 107.318C47.8479 107.626 47.5923 108.309 47.9315 108.822L47.9313 108.822Z" fill="#D89D35"/>
</g>
<defs>
<linearGradient id="paint0_linear_1858_982" x1="62.1617" y1="0" x2="62.1617" y2="124.091" gradientUnits="userSpaceOnUse">
<stop stop-color="#EFDBFF"/>
<stop offset="1" stop-color="white"/>
</linearGradient>
</defs>
</svg>
