<svg width="122" height="121" viewBox="0 0 122 121" fill="none" xmlns="http://www.w3.org/2000/svg">
<rect x="1" width="120.277" height="120.277" rx="60.1386" fill="url(#paint0_linear_1858_898)"/>
<mask id="mask0_1858_898" style="mask-type:luminance" maskUnits="userSpaceOnUse" x="0" y="0" width="121" height="121">
<circle cx="60.7866" cy="60.5767" r="60.2134" fill="white"/>
</mask>
<g mask="url(#mask0_1858_898)">
<path d="M98.9726 90.8317C65.4654 60.0767 124.796 29.3435 70.8011 16.1064C32.3815 6.6873 33.9545 55.9309 19.0732 59.1145C4.19105 62.2978 -26.4594 79.7159 -8.96103 114.358C-6.09085 120.04 -3.36403 124.773 -0.810756 128.715C9.46404 144.578 27.3714 157.424 42.3458 168.956C108.987 220.277 143.363 131.575 98.9726 90.8317Z" fill="#FFC562"/>
<path d="M-8.76936 0.418125C-4.72686 2.90805 0.551879 1.84265 3.36229 -1.98398C8.14517 -8.4963 14.8781 -17.4157 16.3577 -18.0907C18.7071 -19.1625 36.4953 -31.4154 38.1158 -31.6601V-31.6601C47.6823 -33.1042 21.7537 -35.7872 28.5749 -42.6481C30.3186 -44.4019 32.552 -46.3759 35.3922 -48.5939C41.4915 -53.3569 25.8391 -58.3001 7.70878 -34.5256C1.70377 -26.6511 -4.78933 -19.9984 -9.98639 -15.1576C-14.646 -10.8174 -14.1913 -2.92144 -8.76936 0.418125V0.418125Z" fill="#FF9763"/>
<path d="M-12.1352 -16.6075C-6.37753 -23.414 1.86209 -24.0305 6.28718 -16.2911V-16.2911C11.3804 -7.3832 10.059 2.90976 4.5107 11.5415L2.72277 14.3231C-5.85622 27.67 -4.79962 45.0366 5.33415 57.2449L19.123 73.8567C24.5899 80.4427 25.3118 89.7593 20.925 97.1089V97.1089C13.3235 109.844 -4.9532 110.317 -13.2029 97.9917L-48.2732 45.5963C-52.9462 39.415 -52.7023 31.3503 -47.6623 25.392L-12.1352 -16.6075Z" fill="#9A7ED9"/>
<mask id="mask1_1858_898" style="mask-type:luminance" maskUnits="userSpaceOnUse" x="-52" y="-22" width="76" height="129">
<path fill-rule="evenodd" clip-rule="evenodd" d="M-12.1332 -16.6075C-6.37558 -23.414 1.86404 -24.0305 6.28913 -16.2911V-16.2911C11.3823 -7.3832 10.0609 2.90976 4.51265 11.5415L2.72473 14.3231C-5.85426 27.67 -4.79767 45.0366 5.3361 57.2449L19.125 73.8567C24.5918 80.4427 25.3138 89.7593 20.9269 97.1089V97.1089C13.3255 109.844 -4.95125 110.317 -13.201 97.9917L-48.2712 45.5963C-52.9442 39.415 -52.7004 31.3503 -47.6604 25.392L-12.1332 -16.6075Z" fill="white"/>
</mask>
<g mask="url(#mask1_1858_898)">
<path opacity="0.1" d="M5.21906 117.983C6.05388 109.681 -3.60201 104.769 -9.59988 110.57C-9.96645 110.925 -10.3285 111.276 -10.6861 111.625C-17.4199 118.184 -11.4888 128.286 -2.33554 126.143L-1.84334 126.027C1.98768 125.13 4.82542 121.898 5.21906 117.983V117.983Z" fill="#1E216E"/>
<path d="M9.2811 111.171C10.229 103.119 -8.76802 88.5897 -15.5681 84.1752V84.1752C-22.3568 79.7682 -29.8126 88.0689 -28.9509 96.1166L-27.6708 108.072C-27.2268 112.218 -24.6938 115.849 -20.9562 117.697L-6.09987 125.045C0.23388 128.177 7.75977 124.093 8.58594 117.076L9.2811 111.171Z" fill="#6F4EB9"/>
</g>
<path d="M9.06943 87.8397L-5.61093 99.3629C-18.6279 109.25 -16.6742 129.064 -1.60785 135.792C-1.26725 135.944 -0.925358 136.087 -0.582192 136.219C23.9482 145.653 -15.377 194.528 -11.686 195.684C10.0303 202.482 28.4092 203.37 43.0776 201.692C69.2224 198.701 76.1081 170.312 77.1904 144.019C77.4873 136.805 78.8014 129.74 81.7976 123.784C84.6898 118.034 88.4325 112.573 90.0703 106.349V106.349C91.3307 101.559 92.0669 96.0535 88.6432 92.4743C86.7691 90.5152 84.2619 89.1144 81.4126 88.5613L22.1849 77.5449" fill="#9A7ED9"/>
<mask id="mask2_1858_898" style="mask-type:luminance" maskUnits="userSpaceOnUse" x="-15" y="77" width="107" height="126">
<path fill-rule="evenodd" clip-rule="evenodd" d="M9.07041 87.8397L-5.60995 99.3629C-18.6269 109.25 -16.6732 129.064 -1.60688 135.792C-1.26627 135.944 -0.924382 136.087 -0.581215 136.219C23.9491 145.653 -15.3761 194.528 -11.685 195.684C10.0313 202.482 28.4102 203.37 43.0786 201.692C69.2233 198.701 76.1091 170.312 77.1913 144.019C77.4883 136.805 78.8023 129.74 81.7986 123.784C84.6908 118.034 88.4335 112.573 90.0713 106.349V106.349C91.3317 101.559 92.0679 96.0535 88.6441 92.4743C86.7701 90.5152 84.2629 89.1144 81.4135 88.5613L22.1859 77.5449" fill="white"/>
</mask>
<g mask="url(#mask2_1858_898)">
<path d="M55.4055 120.925C103.479 167.115 31.4859 214.585 -11.6839 195.685C-16.612 193.527 -20.8445 192.319 -24.476 191.871C-54.3543 188.186 -22.6925 230.427 7.40957 230.03L28.0859 229.757C66.9759 229.243 95.7955 193.465 88.0139 155.358L83.7645 134.548L81.7072 125.303C80.0654 117.926 73.2589 112.87 65.7214 113.43V113.43" fill="#6F4EB9"/>
<path d="M27.8898 73.7598C7.18954 95.0743 17.8056 101.404 68.1019 86.39L-nan -nanL-nan -nanL68.1019 86.39L70.3332 80.9095" fill="#FF9763"/>
</g>
<path d="M83.4126 89.1067L117.467 93.6342C130.019 95.303 142.781 93.0884 154.038 87.288L176.222 75.8564C182.998 72.3646 185.321 67.1441 189.95 73.2007V73.2007C196.037 81.1653 193.001 99.5641 184.794 105.32L153.792 127.06C148.74 130.57 142.561 132.068 136.463 131.26L55.4033 120.925" fill="#9A7ED9"/>
<path d="M26.8281 80.9693L45.9545 56.1518C50.0268 50.8678 57.7705 50.2534 62.6251 54.829V54.829C66.1171 58.1204 67.1444 63.2608 65.1856 67.6414L56.9083 86.1527" fill="#FF9763"/>
<mask id="mask3_1858_898" style="mask-type:luminance" maskUnits="userSpaceOnUse" x="26" y="51" width="41" height="36">
<path fill-rule="evenodd" clip-rule="evenodd" d="M26.8281 80.9693L45.9545 56.1518C50.0268 50.8678 57.7705 50.2534 62.6251 54.829V54.829C66.1171 58.1204 67.1444 63.2608 65.1856 67.6414L56.9083 86.1527" fill="white"/>
</mask>
<g mask="url(#mask3_1858_898)">
<path d="M46.2787 56.4735C49.8387 61.765 46.5374 69.2773 40.5769 71.5456C34.9393 73.691 28.7385 77.0635 24.5398 82.2705C20.0166 87.8798 26.2345 71.2192 31.5144 57.9815C34.0231 51.6919 42.4988 50.8552 46.2787 56.4735V56.4735Z" fill="#E84B23"/>
</g>
<path d="M68.5748 60.4183V60.4183C69.8521 58.798 70.0032 56.5746 69.0983 54.7204C67.6933 51.8419 66.4316 48.6675 65.3635 45.4046C61.2621 32.8755 48.7316 22.9842 41.5833 34.0613C39.3961 37.4506 37.2372 41.6123 35.1862 46.7138C29.7326 60.2786 44.4925 65.8945 54.0779 68.065" fill="#FF9763"/>
<mask id="mask4_1858_898" style="mask-type:luminance" maskUnits="userSpaceOnUse" x="34" y="29" width="36" height="40">
<path fill-rule="evenodd" clip-rule="evenodd" d="M68.5758 60.4183V60.4183C69.8531 58.798 70.0042 56.5746 69.0992 54.7204C67.6942 51.8419 66.4326 48.6675 65.3645 45.4046C61.263 32.8755 48.7325 22.9842 41.5843 34.0613C39.3971 37.4506 37.2382 41.6123 35.1872 46.7138C29.7336 60.2786 44.4935 65.8945 54.0788 68.065" fill="white"/>
</mask>
<g mask="url(#mask4_1858_898)">
<path d="M46.9001 33.0481L-nan -nanL-nan -nanL46.9001 33.0481C47.9274 33.4393 48.4431 34.5892 48.0519 35.6165L46.8557 38.758C46.4646 39.7852 45.3147 40.3009 44.2874 39.9098L-nan -nanL-nan -nanL44.2874 39.9098C43.2601 39.5186 42.7444 38.3687 43.1356 37.3414L44.3317 34.2C44.7229 33.1727 45.8728 32.6571 46.9 33.0482C46.9001 33.0482 46.9001 33.0482 46.9001 33.0482L46.9001 33.0481Z" fill="#190000"/>
<path d="M61.1208 37.2659L-nan -nanL-nan -nanL61.1208 37.2659C62.1481 37.657 62.6638 38.8069 62.2727 39.8342L61.0765 42.9757C60.6853 44.003 59.5354 44.5187 58.5082 44.1275L-nan -nanL-nan -nanL58.5082 44.1275C57.4808 43.7364 56.9652 42.5865 57.3563 41.5592L58.5525 38.4177C58.9437 37.3904 60.0935 36.8747 61.1208 37.2659C61.1208 37.2659 61.1208 37.2659 61.1208 37.2659L61.1208 37.2659Z" fill="#190000"/>
<path d="M48.1054 28.4868C43.8877 28.1486 44.1453 30.6158 46.7681 30.9991C49.3908 31.3825 50.8609 28.7078 48.1054 28.4868Z" fill="#190000"/>
<path d="M62.7334 32.6924C66.1078 35.2451 64.6225 36.8667 62.409 35.4086C60.1955 33.9506 60.5288 31.0247 62.7334 32.6924Z" fill="#190000"/>
<path d="M52.5635 42.7551C52.2298 44.0589 51.2458 43.2563 49.8689 42.9037C48.4919 42.5512 47.2433 42.7823 47.5771 41.4786C47.9109 40.1749 49.2977 39.4038 50.6746 39.7563C52.0516 40.1088 52.8973 41.4515 52.5635 42.7551Z" fill="#E84B23"/>
<path d="M42.9086 47.638C42.0458 57.4667 51.944 56.0192 53.7217 50.2579C53.8088 49.9582 53.6992 49.6361 53.4475 49.4515C52.3906 48.658 49.2154 46.7222 43.632 46.9536C43.2541 46.9699 42.9458 47.2616 42.9086 47.638Z" fill="#C1525F"/>
<mask id="mask5_1858_898" style="mask-type:luminance" maskUnits="userSpaceOnUse" x="42" y="46" width="12" height="9">
<path fill-rule="evenodd" clip-rule="evenodd" d="M42.9086 47.638C42.0458 57.4667 51.944 56.0192 53.7217 50.2579C53.8088 49.9582 53.6992 49.6361 53.4475 49.4515C52.3906 48.658 49.2154 46.7222 43.632 46.9536C43.2541 46.9699 42.9458 47.2616 42.9086 47.638Z" fill="white"/>
</mask>
<g mask="url(#mask5_1858_898)">
<ellipse cx="48.1557" cy="54.6547" rx="4.94623" ry="4.4147" transform="rotate(-3.5816 48.1557 54.6547)" fill="#993443"/>
<path d="M44.9678 46.5899C44.8108 47.2121 44.6558 48.0723 44.7788 48.2673C45.5369 49.469 50.4897 50.2857 51.2902 49.9139V49.9139C52.4007 49.3982 51.0494 47.593 49.8534 47.3309L45.7912 46.4404" fill="#F0F3FC"/>
</g>
</g>
<path d="M64.043 64.6161C66.2659 66.4135 69.4906 67.2061 72.7594 66.4845C77.9896 65.33 81.3523 60.7367 80.2702 56.2249C79.1882 51.7132 74.0712 48.9916 68.8411 50.1461C67.587 50.419 66.3911 50.9118 65.3089 51.6017" fill="#FF9763"/>
<path d="M71.7448 56.589C71.7448 56.589 71.7448 56.589 71.7448 56.589C71.8461 56.5584 71.9495 56.5355 72.0542 56.5206L71.7126 56.5665C71.8911 56.5441 72.0716 56.5444 72.2499 56.5672L71.9084 56.5213C72.0973 56.548 72.2821 56.5986 72.4583 56.672L72.1513 56.5425C72.3166 56.6138 72.4723 56.7052 72.6152 56.8147L72.3551 56.6137V56.6137C72.6035 56.8099 72.7968 57.0813 73.087 57.2078C73.2476 57.2779 73.4211 57.3183 73.5989 57.3258C73.9392 57.3233 74.2651 57.1883 74.5074 56.9494C74.7477 56.708 74.8829 56.3815 74.8838 56.0409L74.8379 55.6993C74.7787 55.4849 74.6649 55.2895 74.5074 55.1324C74.098 54.6499 73.5555 54.2987 72.9477 54.1227C72.6444 54.0311 72.3296 53.9828 72.0128 53.9795C71.855 53.9808 71.6976 53.9943 71.5418 54.0196C71.3795 54.037 71.219 54.0676 71.0616 54.111C70.7412 54.2056 70.4674 54.4161 70.2938 54.7015C70.03 55.1528 70.0659 55.7188 70.3845 56.1332C70.703 56.5476 71.2408 56.7278 71.7447 56.589C71.7447 56.589 71.7448 56.589 71.7448 56.589V56.589Z" fill="#190000"/>
<path d="M-nan -nanL74.037 28.8074L74.9885 31.6679C75.0844 31.9876 75.2946 32.2609 75.579 32.4358C75.8732 32.6078 76.2237 32.6559 76.5534 32.5695C76.8831 32.483 77.165 32.2691 77.3369 31.9748C77.5112 31.6756 77.5579 31.3188 77.4664 30.9847L76.5149 28.1243C76.419 27.8045 76.2089 27.5312 75.9245 27.3564C75.6303 27.1843 75.2797 27.1362 74.95 27.2227C74.6203 27.3091 74.3385 27.523 74.1666 27.8173C73.9922 28.1166 73.9456 28.4734 74.037 28.8074L-nan -nanL-nan -nanZ" fill="#D89D35"/>
</g>
<defs>
<linearGradient id="paint0_linear_1858_898" x1="61.1386" y1="0" x2="61.1386" y2="120.277" gradientUnits="userSpaceOnUse">
<stop stop-color="#EFDBFF"/>
<stop offset="1" stop-color="white"/>
</linearGradient>
</defs>
</svg>
