<svg width="121" height="121" viewBox="0 0 121 121" fill="none" xmlns="http://www.w3.org/2000/svg">
<rect width="120.277" height="120.277" rx="60.1386" fill="url(#paint0_linear_1858_824)"/>
<mask id="mask0_1858_824" style="mask-type:luminance" maskUnits="userSpaceOnUse" x="1" y="1" width="120" height="119">
<circle cx="60.7661" cy="60.7642" r="59.2358" fill="white"/>
</mask>
<g mask="url(#mask0_1858_824)">
<ellipse cx="65.7515" cy="45.406" rx="26.6237" ry="22.9724" transform="rotate(-20.0153 65.7515 45.406)" fill="#3A3530"/>
<path d="M65.0727 100.894L75.9959 71.4054C78.8764 63.6292 72.1296 55.7003 63.9926 57.2988V57.2988C60.8813 57.9101 58.2132 59.8765 56.6273 62.6221C53.5398 67.9673 48.1157 76.8801 43.7861 81.4572" fill="#FF9763"/>
<path d="M82.079 25.101C81.6944 23.4186 80.9274 21.8475 79.8377 20.5093C74.3445 13.8248 61.9506 14.3283 52.1558 21.6345V21.6345C46.0205 26.1388 39.4997 30.7952 33.0922 34.9031C32.4851 35.2923 31.8912 35.7041 31.3118 36.138C20.0938 44.5051 17.0319 58.629 24.4735 67.6848C31.9145 76.7406 47.0413 77.2983 58.2593 68.9309C63.5839 64.9595 67.0707 59.691 68.4689 54.2832C68.9699 52.3455 69.7112 50.4656 70.6914 48.7207V48.7207C71.7197 46.8903 72.9981 45.1958 74.5413 43.7722C80.6376 38.1487 83.4555 30.907 82.079 25.101Z" fill="#3A3530"/>
<path d="M62.4641 75.2386C80.4952 89.4962 98.0967 74.8376 79.8005 29.0674C80.4285 31.6346 80.1257 34.5094 78.9905 37.3799C75.5918 45.9744 68.781 53.5915 61.2676 58.9735V58.9735C58.2672 61.1231 56.0101 61.7008 53.2211 62.1747C52.2328 62.3426 51.8439 63.5475 52.5568 64.2523V64.2523" fill="#FF9763"/>
<path d="M57.3848 70.3368C40.8389 62.9464 51.0985 45.1899 63.9577 57.9175Z" fill="#FF9763"/>
<path d="M39.6055 86.9324V86.9324C43.137 81.4911 50.845 80.8247 55.2581 85.579L61.6104 92.4225C65.0046 96.0792 66.6476 101.027 66.1148 105.988L66.0308 106.77" fill="#F0F3FC"/>
<path d="M161.735 103.15C155.84 97.2187 165.695 95.6713 157.414 96.8331C154.559 97.2335 152.312 97.6401 151.906 97.9673C151.146 98.5795 131.947 117.953 116.895 133.166C106.997 143.171 90.8783 143.289 80.832 133.433L71.1947 123.978C64.1118 117.029 52.3703 118.661 47.4511 127.278V127.278C43.6502 133.936 45.4282 142.385 51.5902 146.946L94.9344 179.032C97.8901 181.22 101.628 182.069 105.239 181.371C108.85 180.673 112.003 178.493 113.93 175.361L146.702 122.418C150.634 116.066 150.714 111.743 158.099 112.867V112.867C163.72 113.722 175.915 114.53 180.969 111.926C181.894 111.449 182.852 110.955 183.816 110.458C191.168 106.664 199.401 102.037 191.223 103.291V103.291C185.603 104.153 171.924 108.023 166.693 105.796C164.446 104.84 162.436 103.856 161.735 103.15V103.15Z" fill="#FF9763"/>
<path d="M52.2265 154.572C59.8299 163.954 76.7899 167.545 83.0387 157.211V157.211C90.166 145.425 84.0079 135.106 74.147 125.49C61.4371 113.095 44.3467 98.2129 37.3941 100.244C31.4668 101.976 30.29 109.658 30.5701 116.812C30.9199 125.745 35.4061 133.818 41.0348 140.763L52.2265 154.572Z" fill="#BB393C"/>
<path d="M-0.890268 177.195C11.182 186.195 35.1601 173.861 47.3924 165.079V165.079C59.719 156.229 64.2891 132.417 65.9759 117.007C66.9311 108.281 62.7717 99.9665 55.7188 94.7398V94.7398C46.874 88.1852 34.9715 87.644 26.4546 94.6192C14.9454 104.045 -1.57248 119.802 -16.4808 142.307C-22.4198 151.272 -19.7401 163.141 -11.1187 169.569L-0.890268 177.195Z" fill="#BB393C"/>
<path d="M163.01 107.21C156.805 101.005 167.193 99.3956 158.501 100.605C155.484 101.025 153.106 101.452 152.677 101.795C151.871 102.439 131.378 122.991 115.501 138.938C105.279 149.206 88.7029 149.327 78.3288 139.213L70.7896 131.862C64.7682 125.991 55.172 125.967 49.1212 131.808V131.808C42.1862 138.501 42.943 149.826 50.707 155.537L92.7811 186.488C95.8906 188.776 99.8135 189.662 103.605 188.934C107.396 188.206 110.711 185.929 112.752 182.653L147.168 127.401C151.327 120.725 151.431 116.187 159.208 117.364V117.364C165.106 118.258 177.914 119.101 183.224 116.382C184.182 115.892 185.174 115.383 186.173 114.871C193.931 110.893 202.577 106.029 193.961 107.365V107.365C188.087 108.275 173.744 112.306 168.269 109.994C165.888 108.988 163.753 107.952 163.01 107.21V107.21Z" fill="#FF9763"/>
<path d="M27.1328 135.493L47.938 161.004C55.8976 170.764 73.6376 174.532 80.213 163.791V163.791C87.7745 151.439 81.2625 140.562 70.8601 130.485C66.7029 126.458 62.1034 122.184 57.5197 118.27" fill="#BB393C"/>
<circle cx="61.6871" cy="110.804" r="1.48589" fill="#F0F3FC"/>
<path d="M-nan -nanL-nan -nanL-nan -nanL82.7925 50.9969C83.762 51.0717 84.4873 51.9183 84.4124 52.8878L84.1835 55.8525C84.1087 56.822 83.2621 57.5473 82.2926 57.4724L-nan -nanL-nan -nanL82.2926 57.4724C81.3231 57.3976 80.5978 56.551 80.6727 55.5815L80.9016 52.6167C80.9764 51.6473 81.823 50.922 82.7925 50.9969L-nan -nanL-nan -nanZ" fill="#190000"/>
<path d="M84.8077 45.2462C79.5234 44.6016 78.1735 46.7085 81.4505 47.327C84.7275 47.9454 88.2601 45.6674 84.8077 45.2462Z" fill="#190000"/>
<path d="M86.2252 54.2354C93.7082 59.3175 90.4898 66.029 86.1328 64.0666Z" fill="#FF9763"/>
<circle cx="71.4423" cy="57.8017" r="5.91299" fill="#E84B23"/>
</g>
<defs>
<linearGradient id="paint0_linear_1858_824" x1="60.1386" y1="0" x2="60.1386" y2="120.277" gradientUnits="userSpaceOnUse">
<stop stop-color="#EFDBFF"/>
<stop offset="1" stop-color="white"/>
</linearGradient>
</defs>
</svg>
